<?xml version="1.0" encoding="UTF-8" standalone="no"?>
<!DOCTYPE svg PUBLIC "-//W3C//DTD SVG 1.1//EN"
 "http://www.w3.org/Graphics/SVG/1.1/DTD/svg11.dtd">
<!-- Generated by graphviz version 2.38.0 (20140413.2041)
 -->
<!-- Title: G Pages: 1 -->
<svg width="662pt" height="376pt"
 viewBox="0.00 0.00 661.59 376.00" xmlns="http://www.w3.org/2000/svg" xmlns:xlink="http://www.w3.org/1999/xlink">
<g id="graph0" class="graph" transform="scale(1 1) rotate(0) translate(4 372)">
<title>G</title>
<polygon fill="white" stroke="none" points="-4,4 -4,-372 657.593,-372 657.593,4 -4,4"/>
<g id="clust1" class="cluster"><title>cluster_Global</title>
<path fill="none" stroke="gray" d="M140.593,-8C140.593,-8 633.593,-8 633.593,-8 639.593,-8 645.593,-14 645.593,-20 645.593,-20 645.593,-348 645.593,-348 645.593,-354 639.593,-360 633.593,-360 633.593,-360 140.593,-360 140.593,-360 134.593,-360 128.593,-354 128.593,-348 128.593,-348 128.593,-20 128.593,-20 128.593,-14 134.593,-8 140.593,-8"/>
<text text-anchor="middle" x="387.093" y="-347.2" font-family="Times New Roman,serif" font-size="11.00" fill="gray">Global</text>
</g>
<g id="clust2" class="cluster"><title>cluster_\semantic</title>
<path fill="none" stroke="gray" d="M148.593,-16C148.593,-16 625.593,-16 625.593,-16 631.593,-16 637.593,-22 637.593,-28 637.593,-28 637.593,-320 637.593,-320 637.593,-326 631.593,-332 625.593,-332 625.593,-332 148.593,-332 148.593,-332 142.593,-332 136.593,-326 136.593,-320 136.593,-320 136.593,-28 136.593,-28 136.593,-22 142.593,-16 148.593,-16"/>
<text text-anchor="middle" x="387.093" y="-319.2" font-family="Times New Roman,serif" font-size="11.00" fill="gray">semantic</text>
</g>
<g id="clust3" class="cluster"><title>cluster_\semantic\walker</title>
<path fill="none" stroke="gray" d="M156.593,-232C156.593,-232 612.093,-232 612.093,-232 618.093,-232 624.093,-238 624.093,-244 624.093,-244 624.093,-292 624.093,-292 624.093,-298 618.093,-304 612.093,-304 612.093,-304 156.593,-304 156.593,-304 150.593,-304 144.593,-298 144.593,-292 144.593,-292 144.593,-244 144.593,-244 144.593,-238 150.593,-232 156.593,-232"/>
<text text-anchor="middle" x="384.343" y="-291.2" font-family="Times New Roman,serif" font-size="11.00" fill="gray">walker</text>
</g>
<!-- \\semantic\\walker\\abstract_base -->
<g id="node1" class="node"><title>\\semantic\\walker\\abstract_base</title>
<polygon fill="none" stroke="black" points="256.593,-276 152.593,-276 152.593,-240 256.593,-240 256.593,-276"/>
<text text-anchor="start" x="170.593" y="-261.2" font-family="Courier,monospace" font-size="11.00">«abstract»</text>
<text text-anchor="start" x="160.593" y="-249.2" font-family="Courier,monospace" font-size="11.00">abstract_base</text>
</g>
<!-- \\Walker -->
<g id="node9" class="node"><title>\\Walker</title>
<ellipse fill="none" stroke="black" cx="40.2964" cy="-258" rx="40.0939" ry="18"/>
<text text-anchor="middle" x="40.2964" y="-254.3" font-family="Times New Roman,serif" font-size="14.00" fill="gray">\Walker</text>
</g>
<!-- \\semantic\\walker\\abstract_base&#45;&gt;\\Walker -->
<g id="edge2" class="edge"><title>\\semantic\\walker\\abstract_base&#45;&gt;\\Walker</title>
<path fill="none" stroke="black" d="M152.241,-258C132.64,-258 110.346,-258 90.9095,-258"/>
<polygon fill="none" stroke="black" points="90.7393,-254.5 80.7392,-258 90.7392,-261.5 90.7393,-254.5"/>
</g>
<!-- \\semantic\\walker\\nav_menu -->
<g id="node2" class="node"><title>\\semantic\\walker\\nav_menu</title>
<polygon fill="none" stroke="black" points="616.093,-276 545.093,-276 545.093,-240 616.093,-240 616.093,-276"/>
<text text-anchor="middle" x="580.593" y="-255.2" font-family="Courier,monospace" font-size="11.00">nav_menu</text>
</g>
<!-- \\semantic\\walker\\abstract_nav_menu -->
<g id="node3" class="node"><title>\\semantic\\walker\\abstract_nav_menu</title>
<polygon fill="none" stroke="black" points="459.593,-276 328.593,-276 328.593,-240 459.593,-240 459.593,-276"/>
<text text-anchor="start" x="360.093" y="-261.2" font-family="Courier,monospace" font-size="11.00">«abstract»</text>
<text text-anchor="start" x="336.593" y="-249.2" font-family="Courier,monospace" font-size="11.00">abstract_nav_menu</text>
</g>
<!-- \\semantic\\walker\\nav_menu&#45;&gt;\\semantic\\walker\\abstract_nav_menu -->
<g id="edge3" class="edge"><title>\\semantic\\walker\\nav_menu&#45;&gt;\\semantic\\walker\\abstract_nav_menu</title>
<path fill="none" stroke="black" d="M544.89,-258C523.787,-258 495.995,-258 470.085,-258"/>
<polygon fill="none" stroke="black" points="469.887,-254.5 459.887,-258 469.887,-261.5 469.887,-254.5"/>
</g>
<!-- \\semantic\\walker\\abstract_nav_menu&#45;&gt;\\semantic\\walker\\abstract_base -->
<g id="edge7" class="edge"><title>\\semantic\\walker\\abstract_nav_menu&#45;&gt;\\semantic\\walker\\abstract_base</title>
<path fill="none" stroke="black" d="M328.566,-258C308.54,-258 286.537,-258 266.748,-258"/>
<polygon fill="none" stroke="black" points="266.623,-254.5 256.623,-258 266.623,-261.5 266.623,-254.5"/>
</g>
<!-- \\semantic\\theme -->
<g id="node4" class="node"><title>\\semantic\\theme</title>
<polygon fill="none" stroke="black" points="607.593,-222 553.593,-222 553.593,-186 607.593,-186 607.593,-222"/>
<text text-anchor="middle" x="580.593" y="-201.2" font-family="Courier,monospace" font-size="11.00">theme</text>
</g>
<!-- \\semantic\\abstract_base -->
<g id="node5" class="node"><title>\\semantic\\abstract_base</title>
<polygon fill="none" stroke="black" points="446.093,-141 342.093,-141 342.093,-105 446.093,-105 446.093,-141"/>
<text text-anchor="start" x="360.093" y="-126.2" font-family="Courier,monospace" font-size="11.00">«abstract»</text>
<text text-anchor="start" x="350.093" y="-114.2" font-family="Courier,monospace" font-size="11.00">abstract_base</text>
</g>
<!-- \\semantic\\theme&#45;&gt;\\semantic\\abstract_base -->
<g id="edge1" class="edge"><title>\\semantic\\theme&#45;&gt;\\semantic\\abstract_base</title>
<path fill="none" stroke="black" d="M553.55,-192.566C525.676,-180.329 480.757,-160.609 445.85,-145.284"/>
<polygon fill="none" stroke="black" points="446.856,-141.903 436.293,-141.088 444.042,-148.313 446.856,-141.903"/>
</g>
<!-- \\semantic\\integrations -->
<g id="node6" class="node"><title>\\semantic\\integrations</title>
<polygon fill="none" stroke="black" points="629.593,-168 531.593,-168 531.593,-132 629.593,-132 629.593,-168"/>
<text text-anchor="middle" x="580.593" y="-147.2" font-family="Courier,monospace" font-size="11.00">integrations</text>
</g>
<!-- \\semantic\\integrations&#45;&gt;\\semantic\\abstract_base -->
<g id="edge4" class="edge"><title>\\semantic\\integrations&#45;&gt;\\semantic\\abstract_base</title>
<path fill="none" stroke="black" d="M531.118,-142.906C508.23,-139.557 480.662,-135.522 456.345,-131.964"/>
<polygon fill="none" stroke="black" points="456.547,-128.456 446.146,-130.471 455.534,-135.382 456.547,-128.456"/>
</g>
<!-- \\semantic\\debug -->
<g id="node7" class="node"><title>\\semantic\\debug</title>
<polygon fill="none" stroke="black" points="607.593,-114 553.593,-114 553.593,-78 607.593,-78 607.593,-114"/>
<text text-anchor="middle" x="580.593" y="-93.2" font-family="Courier,monospace" font-size="11.00">debug</text>
</g>
<!-- \\semantic\\debug&#45;&gt;\\semantic\\abstract_base -->
<g id="edge5" class="edge"><title>\\semantic\\debug&#45;&gt;\\semantic\\abstract_base</title>
<path fill="none" stroke="black" d="M553.55,-99.8112C528.435,-103.487 489.481,-109.187 456.483,-114.016"/>
<polygon fill="none" stroke="black" points="455.843,-110.572 446.455,-115.484 456.856,-117.499 455.843,-110.572"/>
</g>
<!-- \\semantic\\shutdown -->
<g id="node8" class="node"><title>\\semantic\\shutdown</title>
<polygon fill="none" stroke="black" points="616.093,-60 545.093,-60 545.093,-24 616.093,-24 616.093,-60"/>
<text text-anchor="middle" x="580.593" y="-39.2" font-family="Courier,monospace" font-size="11.00">shutdown</text>
</g>
<!-- \\semantic\\shutdown&#45;&gt;\\semantic\\abstract_base -->
<g id="edge6" class="edge"><title>\\semantic\\shutdown&#45;&gt;\\semantic\\abstract_base</title>
<path fill="none" stroke="black" d="M544.89,-57.2355C516.983,-69.4872 477.378,-86.8748 445.9,-100.694"/>
<polygon fill="none" stroke="black" points="444.163,-97.6343 436.414,-104.859 446.977,-104.044 444.163,-97.6343"/>
</g>
</g>
</svg>
