<?xml version="1.0" encoding="utf-8"?>
<!-- Generator: Adobe Illustrator 16.2.0, SVG Export Plug-In . SVG Version: 6.00 Build 0)  -->
<!DOCTYPE svg PUBLIC "-//W3C//DTD SVG 1.1//EN" "http://www.w3.org/Graphics/SVG/1.1/DTD/svg11.dtd" [
	<!ENTITY st0 "fill-rule:evenodd;clip-rule:evenodd;fill:#060603;">
	<!ENTITY st1 "fill-rule:evenodd;clip-rule:evenodd;fill:#D4A861;">
	<!ENTITY st2 "fill-rule:evenodd;clip-rule:evenodd;fill:#A1A3A0;">
	<!ENTITY st3 "fill-rule:evenodd;clip-rule:evenodd;fill:#0F0F02;">
	<!ENTITY st4 "fill-rule:evenodd;clip-rule:evenodd;fill:#ADAFAC;">
	<!ENTITY st5 "fill-rule:evenodd;clip-rule:evenodd;fill:#4D4F4C;">
	<!ENTITY st6 "fill-rule:evenodd;clip-rule:evenodd;fill:#F1F3EF;">
	<!ENTITY st7 "fill-rule:evenodd;clip-rule:evenodd;fill:#F4D220;">
	<!ENTITY st8 "fill-rule:evenodd;clip-rule:evenodd;fill:#F5D320;">
	<!ENTITY st9 "fill-rule:evenodd;clip-rule:evenodd;fill:#FAFBF8;">
	<!ENTITY st10 "fill-rule:evenodd;clip-rule:evenodd;fill:#FBFCF9;">
	<!ENTITY st11 "fill-rule:evenodd;clip-rule:evenodd;fill:#FCFDFA;">
	<!ENTITY st12 "fill-rule:evenodd;clip-rule:evenodd;fill:#FCFDFB;">
	<!ENTITY st13 "fill-rule:evenodd;clip-rule:evenodd;fill:#FDFEFB;">
	<!ENTITY st14 "fill-rule:evenodd;clip-rule:evenodd;fill:#000200;">
	<!ENTITY st15 "fill-rule:evenodd;clip-rule:evenodd;fill:#D0D2CF;">
	<!ENTITY st16 "fill-rule:evenodd;clip-rule:evenodd;fill:#050704;">
]>
<svg version="1.1" id="Layer_1" xmlns="http://www.w3.org/2000/svg" xmlns:xlink="http://www.w3.org/1999/xlink" x="0px" y="0px"
	  viewBox="0 0 300 300" style="enable-background:new 0 0 300 300;" xml:space="preserve">
<g>
	<g>
		<path style="&st13;" d="M29.5,300.5c-8.998,0-17.997-0.057-26.993,0.05c-1.7,0.021-2.057-0.316-2.056-2.043
			C0.51,241.688,0.5,184.868,0.5,128.049c0-41.74,0.011-83.48-0.039-125.22C0.459,1.095,0.622,0.441,2.67,0.443
			c98.56,0.065,197.119,0.063,295.679,0.015c1.729,0,2.206,0.263,2.205,2.14c-0.062,98.643-0.061,197.285-0.004,295.928
			c0.001,1.764-0.419,2.021-2.075,2.019c-34.325-0.059-68.649-0.044-102.975-0.044c-0.679-0.73-0.302-1.565-0.254-2.379
			c0.591-10.182-0.576-20.094-4.462-29.61c-4.018-9.842-10.089-18.159-18.432-24.743c-1.834-1.448-2.554-3.058-2.552-5.329
			c0.003-4.321,0.344-8.662-0.428-12.961c-0.073-0.406-0.053-0.833-0.023-1.248c0.059-0.819-0.063-1.842,0.839-2.185
			c0.739-0.28,1.354,0.443,1.974,0.862c8.348,5.647,17.576,8.551,27.637,8.939c5.359,0.208,9.284-2.133,11.386-6.905
			c1.528-3.472,3.475-4.947,7.469-5.459c11.621-1.489,21.572-7.089,30.543-14.413c7.337-5.99,13.801-12.793,18.3-21.249
			c3.167-5.951,5.039-12.23,5.385-19.035c0.531-10.456-0.18-20.733-3.009-30.853c-3.447-12.33-9.121-23.638-16.395-34.042
			c-3.587-5.13-5.204-9.775-3.424-16.08c1.778-6.299,1.927-12.993,0.717-19.561c-0.722-3.921-2.331-7.332-6.165-9.139
			c-3.433-1.618-6.666-0.431-8.38,2.931c-0.65,1.276-0.966,2.654-1.254,4.042c-0.715,1.423,0.348,3.298-1.14,4.524
			c-2.229-1.058-3.529-2.909-3.333-4.964c0.628-6.601-1.084-12.557-5.191-17.701c-1.805-2.261-2.468-4.315-1.788-7.267
			s-0.431-5.993-2.105-8.513c-4.636-6.971-11.275-9.827-19.536-8.801c-1.567,0.195-2.753-0.088-3.848-1.159
			c-10.207-9.982-23.782-6.436-30.758,4.609c-2.547,4.033-5.142,7.655-8.922,10.696c-6.682,5.375-10.096,13.076-13.194,20.852
			c-3.025,7.594-5.06,15.489-7.06,23.395c-0.338,1.335-0.339,2.853-1.572,3.841c-0.685,0.048-0.873-0.444-1.047-0.955
			c-0.506-2.354,0.489-4.728-0.027-7.676c-3.393,3.644-5.478,7.558-7.561,11.472c1.632-2.979,3.257-5.965,5.295-8.695
			c0.425-0.569,0.89-1.458,1.727-1.118c0.812,0.33,0.636,1.304,0.549,2.021c-0.289,2.394-0.369,4.81-0.836,7.185
			c-0.382,1.938-0.702,3.762,0.15,5.82c0.722,1.744-0.506,3.713-0.766,5.596c-0.31,2.252-1.911,3.04-3.726,3.896
			c-5.495,2.591-7.325,9.401-3.756,14.35c1.542,2.138,1.592,3.92,0.415,6.185c-1.92,3.695-3.849,7.384-5.876,11.02
			c-1.365,2.448-1.887,2.519-4.207,0.906c-4.206-2.923-9.075-2.631-12.718,0.953c-5.859,5.762-10.485,12.475-14.677,19.504
			c-1.845,3.093-1.892,3.095-5.351,2.093c-6.903-2.002-13.483-0.594-19.524,2.701c-14.633,7.981-25.557,19.563-32.253,34.923
			c-2.114,4.849-1.701,8.181,2.576,10.877c1.555,0.98,1.286,2.242,0.669,3.696c-2.738,6.457-4.838,13.123-6.112,20.024
			c-1.097,5.942-1.301,11.918,0.157,17.833c1.901,7.714,6.397,13.028,14.313,15.098c2.189,0.572,2.516,1.414,1.146,3.434
			c-6.303,9.293-10.001,19.7-13.164,30.348c-0.522,1.76-0.821,3.568-1.206,5.357C30.535,299.279,30.346,300.073,29.5,300.5z"/>
		<path style="&st13;" d="M194.5,300.5c-54.5,0-109,0-163.5,0c-0.61-0.647-0.412-1.398-0.244-2.127
			c2.919-12.646,7.17-24.749,14.363-35.685c1.264-1.921,2.772-2.813,5.112-2.898c11.738-0.43,22.504-4.095,32.533-10.096
			c6.18-3.698,11.757-8.152,16.724-13.361c1.287-1.35,2.732-2.129,4.631-1.994c4.159,0.295,8.117-0.473,11.867-2.3
			c1.375-0.67,2.458-0.374,3.593,0.695c1.567,1.476,3.248,2.848,5.3,3.684c3.15,1.284,5.61,0.77,7.845-1.741
			c4.11-4.617,3.41-10.396-1.683-13.872c-0.274-0.188-0.579-0.331-0.843-0.536c-0.612-0.476-1.22-0.986-0.75-1.863
			c0.412-0.768,1.158-0.978,1.935-0.748c1.959,0.581,3.637,1.648,4.95,3.223c0.588,0.706,1.135,1.445,1.909,1.955
			c2.378,1.566,4.773,3.339,7.807,1.813c3.029-1.524,4.883-4.081,5.162-7.455c0.172-2.093,0.763-3.442,2.698-4.576
			c2.834-1.659,3.485-5.462,2.031-9.18c-0.273-0.698-0.64-1.355-0.963-2.031c-1.143-2.386-0.521-4.524,1.653-6.042
			c1.205-0.842,2.017-0.283,2.777,0.617c4.557,5.392,7.554,11.512,8.785,18.497c1.463,8.308,1.602,16.704,1.769,25.097
			c0.033,1.638,0.485,2.73,1.817,3.79c14.419,11.47,22.028,26.508,23.473,44.824c0.264,3.349,0.002,6.639-0.108,9.954
			C195.116,298.959,195.102,299.821,194.5,300.5z"/>
		<path style="&st14;" d="M194.5,300.5c0.219-5.9,0.523-11.795-0.445-17.675c-2.689-16.331-10.37-29.691-23.646-39.671
			c-1.093-0.822-0.924-1.608-0.958-2.525c-0.318-8.483-0.464-16.965-1.794-25.394c-1.226-7.765-4.688-14.3-9.863-20.062
			c-0.718,0.189-0.947,0.881-1.418,1.313c-1.693,1.557-1.747,3.015-0.567,5.127c1.798,3.22,2.948,7.337-0.087,9.967
			c-2.767,2.396-3.534,5.078-4.556,8.199c-2.136,6.522-8.236,7.943-13.425,3.468c-1.51-1.302-2.633-3.033-4.374-4.073
			c-0.774-0.462-1.635-0.807-2.495-1.088c-0.519-0.17-1.015,0.167-1.222,0.649c-0.206,0.481,0.234,0.721,0.594,0.93
			c0.215,0.125,0.441,0.232,0.655,0.358c6.327,3.733,7,11.002,1.507,16.017c-2.419,2.209-5.107,2.179-7.898,0.98
			c-2.248-0.964-4.114-2.51-5.764-4.295c-0.644-0.697-1.081-0.923-2.067-0.354c-4.009,2.316-8.444,2.97-12.998,2.788
			c-1.455-0.058-2.409,0.372-3.438,1.418c-11.092,11.283-24.045,19.344-39.705,22.642c-3.429,0.723-6.897,1.252-10.393,1.169
			c-2.003-0.047-3.167,0.729-4.249,2.307c-6.092,8.897-9.817,18.831-12.834,29.069c-0.844,2.865-1.383,5.82-2.061,8.734
			c-0.5,0-1,0-1.5,0c2.092-9.432,4.939-18.612,9.026-27.389c1.829-3.928,3.858-7.735,6.404-11.249
			c0.662-0.913,1.237-1.482-0.558-1.897c-8.999-2.081-14.538-8.515-15.89-17.953c-1.574-10.987,1.082-21.303,4.737-31.483
			c0.224-0.625,0.414-1.279,0.748-1.845c1.721-2.912,2.077-5.229-1.495-7.354c-2.451-1.458-2.479-4.394-1.68-7.023
			c2.06-6.78,5.698-12.699,10.118-18.178c6.383-7.913,13.65-14.82,22.744-19.546c7.173-3.727,14.661-5.44,22.559-2.383
			c1.476,0.571,1.499-0.514,1.906-1.194c4.321-7.228,8.961-14.231,14.858-20.292c4.597-4.725,9.87-5.046,15.078-0.959
			c0.911,0.715,1.256,0.739,1.809-0.243c2.609-4.635,5.178-9.288,7.366-14.144c0.431-0.957,0.347-1.563-0.372-2.41
			c-5.257-6.193-3.039-14.326,4.631-17.016c1.028-0.36,1.433-0.872,1.602-1.9c0.256-1.554,0.749-3.068,1.037-4.619
			c0.167-0.896,1.4-2.223-0.876-2.409c-0.559-0.046-0.153-1.004-0.046-1.554c0.394-2.04,0.847-4.071,1.138-6.126
			c0.291-2.056,0.414-4.135,0.678-6.911c-2.665,3.374-4.598,6.459-6.241,9.74c-0.26,0.52-0.493,1.053-0.735,1.582
			c-0.183,0.4-0.438,0.801-0.92,0.554c-0.417-0.214-0.415-0.67-0.225-1.089c0.341-0.755,0.652-1.526,1.033-2.26
			c1.613-3.106,3.489-6.051,5.623-8.822c0.626-0.813,1.119-2.408,2.247-1.965c1.32,0.519,0.451,2.068,0.426,3.164
			c-0.039,1.66-0.193,3.318-0.299,4.977c-0.361,0.888,0.159,1.834-0.179,2.72c0.034,0.203-0.187,0.536-0.054,0.571
			c0.309,0.083-0.102,0.146,0.032-0.178c0.06-0.717,0.188-1.392,0.69-1.931c2.091-7.775,3.918-15.625,6.594-23.235
			c2.601-7.398,5.633-14.57,10.546-20.792c2.604-3.298,6.167-5.552,9.153-8.372c2.842-2.684,3.739-7.057,6.557-10.115
			c8.443-9.162,21.47-9.859,29.425-0.848c1.011,1.145,1.986,0.807,3.134,0.596c10.488-1.929,20.968,5.377,22.42,15.632
			c0.115,0.813,0.303,1.784-0.016,2.459c-1.373,2.913,0.117,4.829,1.811,7.009c4.091,5.268,5.888,11.338,5.046,18
			c-0.293,2.313,1.752,3.03,2.445,4.623c1.256,0.112,0.63-0.848,0.7-1.329c0.154-1.054-0.154-2.144,0.196-3.194
			c0.523-4.788,2.51-7.422,6.073-8.053c3.674-0.65,7.464,1.529,9.378,5.572c2.635,5.562,2.413,11.499,1.937,17.407
			c-0.361,4.48-1.142,8.917-2.288,13.269c-0.372,1.414-0.064,2.45,0.768,3.648c8.38,12.067,15.723,24.673,19.888,38.905
			c3.633,12.412,4.683,25.073,2.72,37.808c-1.707,11.075-7.785,20.07-15.456,27.961c-10.604,10.909-22.89,19.165-38.185,21.619
			c-3.976,0.638-5.957,1.892-7.634,5.534c-2.762,5.998-7.854,7.778-15.676,6.73c-9.373-1.255-18.096-4.138-26.085-10.327
			c0.558,5.819,0.789,11.257,0.728,16.691c-0.023,2.138,0.765,3.394,2.367,4.753C190.635,258.417,198,277.524,195.5,300.5
			C195.166,300.5,194.833,300.5,194.5,300.5z"/>
		<path style="&st5;" d="M234.43,61.917c0.013,1.384,0.051,2.768,0.027,4.151c-0.013,0.727-0.229,1.212-0.924,0.372
			C234.598,65.083,233.455,63.29,234.43,61.917z"/>
		<path style="&st6;" d="M135.438,83.438c0.077-1.059-0.027-2.146,0.491-3.136c0.163,0.394,0.326,0.787,0.489,1.181
			c-0.162,0.826-0.324,1.651-0.486,2.477C135.476,84.062,135.23,83.965,135.438,83.438z"/>
		<path style="&st8;" d="M166.525,80.533c8.07,0.633,13.122,5.453,18.067,10.493c3.361,3.427,6.222,7.459,10.891,9.367
			c0.555,0.227,0.698,0.718,0.825,1.169c0.781,2.761,1.023,5.509,0.274,8.366c-0.646,2.459-1.997,3.137-4.379,2.631
			c-3.872-0.821-7.019-2.958-10.093-5.256c-4.865-3.636-9.328-7.807-14.578-10.93c-3.168-1.884-6.454-3.484-10.168-3.89
			c-1.547-0.169-1.568-0.748-0.934-1.926c0.938-1.739,2.311-3.031,3.87-4.172c0.335-0.246,0.755-0.573,0.494-1.003
			c-0.345-0.569-0.836-0.309-1.271,0.001c-3.051,2.169-5.167,4.928-5.516,8.785c-0.041,0.451-0.218,1.095,0.404,1.277
			c0.693,0.202,0.831-0.445,0.88-0.905c0.148-1.392,1.073-0.951,1.852-0.834c4.386,0.66,8.267,2.574,11.787,5.134
			c4.644,3.377,9.102,7.008,13.699,10.451c3.294,2.466,6.825,4.477,11.374,4.791c-2.29,2.643-5.105,3.78-8.212,4.401
			c-0.686,0.137-1.914-0.03-1.776,0.848c0.181,1.159,1.339,0.519,2.083,0.401c0.816-0.129,1.752-0.19,2.393-0.632
			c2.881-1.989,5.422-1.041,8.187,0.403c3.673,1.918,7.843,2.809,11.328,5.151c2.073,1.394,3.288,3.282,2.613,5.947
			c-0.669,2.641-2.737,4.606-5.338,4.932c-1.993,0.25-3.99,0.139-5.961-0.28c-4.788-1.018-9.016-3.341-13.252-5.66
			c-4.738-2.593-9.382-5.509-14.765-6.546c-11.009-2.12-20.592,1.228-28.908,8.364c-7.951,6.822-12.449,15.442-12.452,26.454
			c-6.107-3.851-11.337-8.277-16.078-13.314c-0.736-0.783-0.34-1.248,0.148-1.895c5.635-7.478,10.14-15.624,14.041-24.106
			c0.661-1.437,1.222-1.732,2.759-1.277c2.489,0.737,4.07-0.003,5.518-2.04c-0.21-0.308-0.572-0.469-0.837-0.276
			c-2.683,1.948-5.208,1.454-7.461-0.64c-2.542-2.362-3.324-5.385-2.342-8.681c1.008-3.378,3.041-5.944,6.739-6.632
			c3.749-0.697,6.657,0.814,8.966,3.691c0.26,0.323,0.456,0.698,0.712,1.024c0.261,0.333,0.583,0.639,1.032,0.316
			c0.478-0.343,0.19-0.717-0.02-1.073c-1.606-2.71-3.872-4.675-6.999-5.161c-1.915-0.297-1.956-1.086-1.545-2.583
			c0.681-2.485,1.402-4.979,1.8-7.516c0.435-2.78,2.63-4.148,4.263-5.965c1.204-1.339,2.592-2.511,4.067-3.638
			c-1.161,4.017-2.846,7.767-4.583,11.502c-0.25,0.538-1.19,1.366-0.131,1.839c0.789,0.352,1.011-0.695,1.279-1.235
			c2.183-4.4,3.938-8.982,5.607-13.594c0.184-0.509,0.575-1.223,0.012-1.628c-0.725-0.521-1.219,0.254-1.667,0.663
			c-1.846,1.683-3.637,3.427-5.47,5.125c-0.564,0.522-0.982,1.369-2.051,1.165c2.712-10.685,5.296-21.313,9.725-31.372
			c3.016-6.85,6.754-13.191,12.754-17.911c0.614-0.484,1.229-1.458,2.094-0.996c0.74,0.395,0.203,1.363,0.206,2.068
			c0.006,1.503-0.026,3.003,0.511,4.44c0.178,0.475,0.392,0.998,1.028,0.8c0.514-0.16,0.346-0.599,0.288-1.026
			c-1.205-9.053-0.245-8.685,7.823-10.751c4.701-1.204,9.532-0.912,14.634-0.298c-2.4,3.249-4.134,6.436-4.503,10.193
			c-0.041,0.415-0.096,0.829-0.111,1.244c-0.023,0.586-0.052,1.413,0.622,1.438c1.015,0.039,0.692-0.952,0.711-1.526
			c0.128-3.832,1.711-7.063,4.014-10.017c0.586-0.752,1.191-1.308,2.292-1.13c10.458,1.688,20.476,4.545,29.011,11.174
			c7.247,5.629,11.5,12.825,11.176,22.282c-0.013,0.382-0.071,0.763-0.108,1.139c-0.952,0.056-1.328-0.577-1.802-0.987
			c-2.23-1.931-4.719-2.382-7.423-1.247c-2.857,1.199-4.526,3.335-4.597,6.509c-0.02,0.898-0.039,1.361-1.151,1.709
			c-4.98,1.556-6.764,5.109-5.021,10.1c1.628,4.661,3.19,9.284,2.672,14.338c-0.263,2.564-1.059,5.052-1.007,7.661
			c0.021,1.131-0.947,1.481-1.769,1.855c-3.491,1.59-6.426,0.142-9.5-1.72c1.286-1.274,2.44-2.45,3.267-3.881
			c0.235-0.408,0.675-0.903,0.121-1.316c-0.569-0.425-0.84,0.146-1.161,0.518c-4.622,5.333-6.303,5.468-11.414,0.605
			c-3.377-3.213-6.525-6.668-9.908-9.875c-3.242-3.073-6.956-5.437-11.443-6.275C168.782,79.506,167.663,79.007,166.525,80.533z"/>
		<path style="&st8;" d="M205.27,169.689c6.834-1.755,13.047-4.271,18.994-7.505c2.541-1.383,3.796-3.301,4.291-6.194
			c1.907-11.145-0.36-21.635-4.372-31.956c-2.483-6.387-5.837-12.31-9.239-18.214c-1.878-3.258-2.462-6.633-1.585-10.314
			c1.214-5.094,0.624-10.078-1.15-14.961c-0.567-1.562-1.181-3.12-1.571-4.729c-0.598-2.458,0.396-4.403,2.349-5.884
			c1.976-1.499,4.041-1.403,6.037-0.086c3.05,2.011,5.098,4.722,5.609,8.445c0.084,0.611-0.141,1.67,0.684,1.638
			c1.079-0.043,0.733-1.164,0.636-1.809c-0.638-4.223-2.977-7.345-6.539-9.557c-2.096-1.3-2.586-2.611-1.542-4.861
			c1.643-3.537,5.859-4.614,8.973-2.262c4.636,3.501,7.709,8.198,10.232,13.334c0.396,0.806,0.588,2.589,1.598,2.078
			c1.185-0.601-0.045-1.958-0.539-2.722c-2.738-4.238-3.333-8.757-2.182-13.594c0.608-2.559,1.662-4.839,4.506-5.392
			c3.001-0.584,5.392,0.751,7.133,3.128c3.032,4.142,3.241,9.029,3.167,13.86c-0.094,6.171-1.056,12.26-2.663,18.229
			c-0.372,1.381-0.131,2.427,0.725,3.638c9.071,12.838,16.842,26.335,20.838,41.721c2.816,10.848,3.614,21.862,2.236,32.942
			c-1.344,10.811-6.881,19.703-14.121,27.533c-10.219,11.053-22.3,19.167-37.226,22.463c-6.283,1.388-6.176,1.347-5.256-4.932
			c2.274-15.518-0.504-29.97-9.426-43.058C205.684,170.402,205.528,170.117,205.27,169.689z"/>
		<path style="&st8;" d="M102.573,232.243c-2.384,2.539-5.09,5.445-8.081,8.059c-11.224,9.809-23.97,16.404-38.866,18.434
			c-3.631,0.494-7.32,0.786-10.943,0.029c-8.907-1.857-14.522-9.195-15.209-19.476c-0.801-11.975,2.639-23.029,7.206-33.839
			c1.292-3.059,2.879-5.992,4.28-9.007c0.47-1.012,1.074-1.513,2.264-1.479c7.873,0.229,15.577,1.277,22.856,4.491
			c2.146,0.948,4.101,2.189,5.738,3.909c1.088,1.142,1.373,1.916-0.463,2.659c-1.918,0.776-3.715,1.857-5.539,2.854
			c-0.582,0.317-1.754,0.485-1.222,1.439c0.375,0.671,1.188-0.009,1.759-0.293c4.167-2.074,8.289-4.244,12.502-6.218
			c12.81-6.003,25.809-11.52,39.705-14.556c9.022-1.972,17.883-1.886,26.172,2.786c5.224,2.944,9.334,6.981,10.994,12.981
			c0.887,3.208-0.178,6.022-2.594,7.428c-1.076,0.626-1.746,0.789-2.521-0.643c-2.138-3.951-5.579-6.785-8.951-9.64
			c-0.399-0.337-0.919-1.045-1.444-0.339c-0.48,0.647,0.29,1.015,0.696,1.363c2.844,2.445,5.701,4.88,7.848,8.004
			c2.463,3.584,2.522,6.725,0.233,10.202c-2.216,3.367-5.756,4.187-9.052,1.837c-1.813-1.292-3.292-3.041-4.998-4.496
			c-1.341-1.143-2.808-2.089-4.735-1.832c-1.05,0.14-1.674,0.72-1.913,1.691c-0.229,0.933,0.236,1.601,1.018,2.072
			c0.924,0.558,1.923,1.02,2.767,1.68c2.293,1.794,3.271,4.077,2.538,7.031c-1.86,7.49-6.868,9.235-12.855,4.35
			c-1.538-1.256-2.833-2.811-4.229-4.237c-0.353-0.36-0.709-0.818-1.24-0.457c-0.465,0.315-0.109,0.725,0.084,1.078
			c0.515,0.947-0.327,1.172-0.855,1.44c-3.566,1.815-7.418,2.296-11.36,2.451C102.037,234.087,104.608,232.31,102.573,232.243z"/>
		<path style="&st1;" d="M205.465,149.068c-0.128,4.196-0.74,8.948-2.967,13.366c-0.22,0.436-0.435,0.923-0.463,1.398
			c-0.451,7.428-6.345,12.226-13.587,10.912c-3.215-0.584-6.224-1.628-8.085-4.701c-0.762-1.256-1.196,0.015-1.578,0.479
			c-1.745,2.124-3.968,3.532-6.531,4.413c-3.044,1.045-5.892,0.561-8.549-1.229c-0.825-0.555-1.36-1.301-1.931,0.572
			c-0.672,2.211-3.113,2.574-5.205,2.669c-4.605,0.209-8.55-1.756-12.366-4.052c-0.787-0.474-0.769-1.191-0.765-1.952
			c0.016-2.848-1.007-5.081-3.452-6.771c-2.195-1.516-4.375-3.041-6.762-4.218c-1.379-0.68-1.888-1.598-1.847-3.12
			c0.367-13.74,7.593-23.094,19.194-29.346c9.398-5.065,19.053-5.265,28.625-0.096c4.388,2.369,8.789,4.72,13.264,6.917
			c2.991,1.468,6.177,2.498,9.554,2.608c1.207,0.039,1.733,0.471,2.053,1.64C204.948,141.789,205.456,145.055,205.465,149.068z"/>
		<path style="&st13;" d="M170.118,176.77c3.354-0.515,6.085-1.844,8.345-4.028c0.804-0.778,1.278-0.842,2.253-0.139
			c8.06,5.823,15.822,4.608,22.19-3.465c3.779,4.351,6.341,9.337,8.287,14.689c4.384,12.054,4.59,24.249,1.299,36.568
			c-0.518,1.936-1.313,3.759-2.381,5.466c-2.207,3.529-5.396,5.525-9.533,5.398c-10.193-0.312-19.682-3.006-28.097-8.975
			c-1.821-1.292-3.089-2.741-3.243-5.235c-0.189-3.055-0.893-6.094-2.027-8.972c-0.435-1.1,0.01-1.946,0.393-2.849
			c2.043-4.821,3.924-9.693,5.471-14.708c1.201-3.896,1.244-7.484-1.227-10.897C171.268,178.822,170.815,177.929,170.118,176.77z"/>
		<path style="&st13;" d="M31.983,195.615c0.18-2.951,1.562-5.362,2.853-7.707c7.701-13.989,18.211-25.151,32.986-31.775
			c4.461-2,9.241-2.76,14.151-1.854c7.296,1.344,11.429,6.104,13.456,12.88c2.498,8.352,1.609,16.781,0.39,25.236
			c-0.324,2.248-1.31,3.251-3.273,3.998c-5.745,2.187-11.306,4.808-16.866,7.426c-0.54,0.254-1.151,1.118-1.89,0.055
			c-3.438-4.951-8.803-6.629-14.22-8.009c-7.791-1.984-15.694-2.972-23.712-1.423C34.597,194.686,33.384,195.184,31.983,195.615z"/>
		<path style="&st13;" d="M104.564,132.823c3.236,7.919,8.855,13.453,14.739,18.779c5.884,5.328,12.842,9.112,19.82,13.432
			c-5.519,2.804-8.965,7.219-12.297,11.751c-2.071,2.815-4.202,5.587-6.217,8.441c-1.276,1.807-2.735,1.724-4.538,0.927
			c-5.54-2.448-9.864-6.454-13.904-10.798c-2.61-2.807-4.811-5.826-5.883-9.691c-1.083-3.904-3.389-7.213-6.777-9.621
			c-0.63-0.447-1.209-0.723-0.625-1.724C93.331,146.691,98.294,139.452,104.564,132.823z"/>
		<path style="&st13;" d="M220.533,119.45c5.481,11.855,9.268,23.926,6.528,37.162c-0.354,1.709-1.031,2.968-2.449,3.813
			c-6.031,3.596-12.458,6.219-19.304,7.826c-1.565,0.367-1.838-0.238-1.85-1.648c-0.019-2.104,0.489-3.979,1.218-5.966
			c2.616-7.146,2.695-14.487,0.809-21.833c-0.309-1.201-0.41-1.835,1.059-2.227c2.58-0.689,4.199-2.534,5.183-4.99
			c0.227-0.565,0.109-1.298,0.947-1.619C217.444,128.143,219.565,124.306,220.533,119.45z"/>
		<path style="&st13;" d="M165.079,28.028c3.601-7.598,8.355-12.912,16.203-14.613c6.688-1.45,12.178,0.899,16.939,6.065
			c-3.692,1.43-6.925,3.225-9.69,5.76c-0.504,0.462-1.089,0.327-1.651,0.278C179.667,24.888,172.511,24.83,165.079,28.028z"/>
		<path style="&st8;" d="M215.688,119.01c-6.152-0.486-11.965-2.05-17.463-4.791c-1.194-0.595-1.769-1.11-0.986-2.613
			c1.298-2.497,1.438-5.217,0.941-8.023c-0.168-0.953-1.348-2.191-0.212-2.909c0.991-0.627,1.902,0.7,2.843,1.153
			c2.121,1.021,4.259,1.887,6.679,1.691c0.332-0.027,0.75,0.085,0.983-0.076c3.422-2.372,4.062,0.225,5.156,2.641
			c1.161,2.561,2.758,4.925,4.167,7.373c0.166,0.288,0.348,0.567,0.528,0.846c0.819,1.261,1.21,2.741,0.537,4.021
			C218.242,119.502,216.753,118.796,215.688,119.01z"/>
		<path style="&st13;" d="M120.248,187.49c2.917-3.068,5.07-6.506,7.48-9.747c2.835-3.813,5.712-7.585,9.737-10.275
			c2.799-1.871,4.292-1.194,4.522,2.223c0.4,5.955-0.759,11.76-1.875,17.563c-0.138,0.716-0.198,1.192-1.224,0.903
			C132.789,186.438,126.589,186.644,120.248,187.49z"/>
		<path style="&st8;" d="M143.585,174.071c4.23,2.461,8.41,4.437,13.275,4.106c1.426-0.097,1.239,0.76,0.929,1.59
			c-0.726,1.939-1.605,3.824-2.258,5.787c-1.144,3.443-2.164,6.93-3.302,10.605c-3.044-2.94-6.345-5.402-10.248-6.935
			c-0.875-0.344-0.66-0.986-0.552-1.653C142.144,183.159,142.842,178.742,143.585,174.071z"/>
		<path style="&st13;" d="M222.217,39.375c-5.352-4.641-11.172-7.89-17.607-10.041c-0.66-0.221-1.115-0.497-1.158-1.355
			c-0.118-2.373-1.034-4.506-2.285-6.493c-0.536-0.851-0.486-1.222,0.614-1.494c8.782-2.165,19.369,4.613,21.061,13.534
			C223.19,35.374,223.034,37.022,222.217,39.375z"/>
		<path style="&st13;" d="M98.547,173.331c3.961,4.369,7.945,8.72,13.016,11.865c1.666,1.032,3.404,1.947,5.385,3.071
			c-6.963,1.576-13.437,3.822-20.193,6.357c0.986-5.637,1.524-11.049,1.667-16.494C98.206,176.524,98.036,174.919,98.547,173.331z"
			/>
		<path style="&st12;" d="M165.652,186.069c1.236-0.975,2.417-2.029,3.72-2.904c1.95-1.311,3.105-0.674,3.229,1.706
			c0.097,1.852-0.319,3.634-0.834,5.397c-1.444,4.95-3.362,9.723-5.56,14.891c-2.062-3.994-4.439-7.413-7.155-10.585
			c-0.634-0.74-0.157-1.155,0.288-1.665c0.927-1.061,1.826-2.146,2.736-3.22C162.632,187.853,163.854,186.676,165.652,186.069z"/>
		<path style="&st11;" d="M161.379,188.948c-2.914,2.576-5.14,5.769-7.932,9.081c0.997-5.358,2.468-10.073,4.34-14.67
			c0.375-0.92,1.102-1.847,1.071-2.751c-0.096-2.924,2.551-3.536,4.001-5.143c0.134-0.148,0.453-0.29,0.61-0.231
			c1.69,0.633,3.46,1.141,5.011,2.027c1.045,0.597,1.795,1.807,2.099,3.006c0.444,1.755-1.504,1.181-2.202,1.913
			c-1.068,1.121-2.543,1.834-3.44,3.17C164.285,187.078,163.067,188.246,161.379,188.948z"/>
		<path style="&st7;" d="M218.737,120.146c-0.517,3.406-1.975,6.057-4.885,7.818c-0.919,0.555-1.611,1.043-2.076-0.628
			c-0.61-2.191-2.319-3.639-4.354-4.558c-4.013-1.811-8.081-3.498-12.087-5.323c-0.507-0.231-1.905-0.298-1.21-1.333
			c0.502-0.747,0.974-2.129,2.692-1.215C203.603,118.521,210.834,120.499,218.737,120.146z"/>
		<path style="&st11;" d="M112.282,142.668c-2.405-2.762-4.42-5.554-5.835-8.775c-0.802-1.828-0.216-2.935,1.589-3.341
			c3.337-0.752,6.406-0.014,9.114,2.072c0.732,0.564,1.352,1.243,0.637,2.311C116.048,137.53,114.473,140.243,112.282,142.668z"/>
		<path style="&st10;" d="M189.979,25.852c2.444-2.392,5.178-3.686,8.008-4.81c0.644-0.256,1.266-0.294,1.703,0.473
			c1.186,2.075,2.41,4.125,2.36,6.902C198.063,27.349,194.2,26.453,189.979,25.852z"/>
		<path style="&st9;" d="M39.596,196.104c-0.708,1.483-1.349,3.005-2.152,4.435c-0.389,0.693-0.405,2.255-1.508,1.813
			c-1.749-0.699-3.358-1.941-3.853-3.928c-0.307-1.231,0.871-1.628,1.775-2.021c1.295-0.564,2.648-0.912,4.067-0.965
			C38.613,195.331,39.494,194.739,39.596,196.104z"/>
		<path style="&st16;" d="M161.379,188.948c0.959-1.424,2.186-2.582,3.558-3.598c0.238,0.239,0.478,0.479,0.716,0.719
			c-1.191,1.206-2.383,2.413-3.575,3.62C161.845,189.442,161.612,189.195,161.379,188.948z"/>
		<path style="&st15;" d="M98.547,173.331c-0.042,1.6-0.083,3.2-0.125,4.8c-0.353-1.688-0.451-3.396-0.368-5.115
			c0.003-0.067,0.094-0.131,0.144-0.196C98.314,172.99,98.431,173.16,98.547,173.331z"/>
		<path style="&st2;" d="M135.438,83.438c0.165,0.174,0.33,0.348,0.494,0.521c0.16,0.716-0.275,1.115-0.749,1.607
			C134.825,84.707,135.026,84.057,135.438,83.438z"/>
		<path style="&st4;" d="M39.596,196.104c-0.348-0.746-1.138-0.384-1.671-0.666c0.653-0.346,1.354-0.657,2-0.118
			C40.159,195.515,39.919,195.923,39.596,196.104z"/>
		<path style="&st3;" d="M134.833,105.182c-1.03,1.06-0.72,2.28-0.842,3.409c-0.057,0.526,0.244,1.38-0.586,1.396
			c-0.951,0.019-0.818-0.892-0.792-1.518c0.035-0.825,0.141-1.656,0.309-2.465c0.224-1.076,1.385-2.286-0.597-2.932
			c-0.335-0.109-0.391-0.597-0.1-0.817c0.215-0.162,0.623-0.182,0.911-0.117c1.734,0.39,4.701,3.813,4.941,5.639
			c0.056,0.421,0.124,0.887-0.353,1.047c-0.509,0.171-0.689-0.297-0.889-0.661C136.287,107.167,136.074,105.951,134.833,105.182z"/>
		<path style="&st0;" d="M167.327,169.288c0.211-1.567,0.736-2.877,2.54-2.802c1.587,0.065,2.053,1.345,1.978,2.637
			c-0.082,1.399-0.775,2.642-2.4,2.64C167.898,171.76,167.399,170.621,167.327,169.288z"/>
	</g>
</g>
</svg>
